<svg xmlns="http://www.w3.org/2000/svg" xmlns:xlink="http://www.w3.org/1999/xlink" width="18" height="18" viewBox="0 0 18 18">
  <defs>
    <style>
      .cls-1 {
        fill: #ccc;
      }

      .cls-2 {
        clip-path: url(#clip-path);
      }

      .cls-3 {
        fill: #999;
      }
    </style>
    <clipPath id="clip-path">
      <rect id="矩形_163" data-name="矩形 163" class="cls-1" width="18" height="18"/>
    </clipPath>
  </defs>
  <g id="蒙版组_44" data-name="蒙版组 44" class="cls-2">
    <path id="message" class="cls-3" d="M20.455,18v.457H15.747A2.277,2.277,0,0,0,13.831,19.6l-.74,1.4-.74-1.4a2.278,2.278,0,0,0-1.915-1.145H5.727V6.545H20.455ZM20.59,4.909h-15a1.536,1.536,0,0,0-1.5,1.566V18.528a1.538,1.538,0,0,0,1.5,1.566h4.84a.674.674,0,0,1,.47.275l.973,1.84.074.116a1.4,1.4,0,0,0,2.278,0l1.047-1.956a.675.675,0,0,1,.47-.275h4.844a1.536,1.536,0,0,0,1.5-1.566V6.475A1.536,1.536,0,0,0,20.59,4.909Zm-12,6.545a1.227,1.227,0,1,0,1.227,1.227,1.22,1.22,0,0,0-1.227-1.227m9,0a1.238,1.238,0,1,0,.818.318,1.227,1.227,0,0,0-.818-.318m-4.5,0a1.238,1.238,0,1,0,.818.318,1.22,1.22,0,0,0-.818-.318" transform="translate(-4.091 -4.909)"/>
  </g>
</svg>
