<svg xmlns="http://www.w3.org/2000/svg" xmlns:xlink="http://www.w3.org/1999/xlink" width="18" height="18" viewBox="0 0 18 18">
  <defs>
    <style>
      .cls-1 {
        fill: #fc7265;
      }

      .cls-2 {
        clip-path: url(#clip-path);
      }
    </style>
    <clipPath id="clip-path">
      <rect id="矩形_170" data-name="矩形 170" class="cls-1" width="18" height="18" transform="translate(251 891)"/>
    </clipPath>
  </defs>
  <g id="蒙版组_47" data-name="蒙版组 47" class="cls-2" transform="translate(-251 -891)">
    <path id="praise_fill" class="cls-1" d="M20.625,9.1a2.015,2.015,0,0,0-1.586-.722H15.112a7.238,7.238,0,0,0,.1-3.555.737.737,0,0,0-.117-.254,2.274,2.274,0,0,0-4.418.635h-.013v.507A2.677,2.677,0,0,1,8.381,8.342V20.571h9.147a1.76,1.76,0,0,0,1.664-1.352L21,10.785A1.994,1.994,0,0,0,20.625,9.1M4.576,8.381A1.53,1.53,0,0,0,3.048,9.91v9.132a1.527,1.527,0,0,0,1.52,1.529h2.29V8.381Z" transform="translate(247.952 888.19)"/>
  </g>
</svg>
