<svg xmlns="http://www.w3.org/2000/svg" xmlns:xlink="http://www.w3.org/1999/xlink" width="18" height="18" viewBox="0 0 18 18">
  <defs>
    <style>
      .cls-1 {
        fill: #ccc;
      }

      .cls-2 {
        clip-path: url(#clip-path);
      }

      .cls-3 {
        fill: #999;
      }
    </style>
    <clipPath id="clip-path">
      <rect id="矩形_178" data-name="矩形 178" class="cls-1" width="18" height="18"/>
    </clipPath>
  </defs>
  <g id="蒙版组_50" data-name="蒙版组 50" class="cls-2" transform="translate(0)">
    <path id="praise" class="cls-3" d="M19.509,10.466,17.7,18.9a.249.249,0,0,1-.174.149l-9.147,0V9.9H8.45V9.88A4.2,4.2,0,0,0,12.19,5.714V5.333a.763.763,0,0,1,1.524,0h.049c.151.781.285,2.536-.568,3.331a.756.756,0,0,0,.84,1.24H19.04a.5.5,0,0,1,.4.157A.477.477,0,0,1,19.509,10.466ZM4.576,9.9H6.857v9.138H4.571Zm16.049-.8a2.015,2.015,0,0,0-1.586-.722H15.112a7.238,7.238,0,0,0,.1-3.555.737.737,0,0,0-.117-.254,2.274,2.274,0,0,0-4.418.635h-.013v.507A2.67,2.67,0,0,1,8,8.381H4.576A1.53,1.53,0,0,0,3.048,9.91v9.132a1.526,1.526,0,0,0,1.52,1.529h12.96a1.76,1.76,0,0,0,1.664-1.352L21,10.785A1.994,1.994,0,0,0,20.625,9.1Z" transform="translate(-3.048 -2.81)"/>
  </g>
</svg>
