<svg xmlns="http://www.w3.org/2000/svg" xmlns:xlink="http://www.w3.org/1999/xlink" viewBox="0 0 22 22">
  <defs>
    <style>
      .cls-1 {
        fill: #d1d1d1;
      }

      .cls-2 {
        clip-path: url(#clip-path);
      }

      .cls-3 {
        fill: #1f91f2;
      }

      .cls-4 {
        fill: #fc7265;
      }
    </style>
    <clipPath id="clip-path">
      <rect id="矩形_32" data-name="矩形 32" class="cls-1" width="22" height="22" transform="translate(36 1523)"/>
    </clipPath>
  </defs>
  <g id="蒙版组_1" data-name="蒙版组 1" class="cls-2" transform="translate(-36 -1523)">
    <g id="CRM_icon_shouye" transform="translate(32.229 1519.215)">
      <path id="路径_17" data-name="路径 17" class="cls-3" d="M20.137,25.785H9.2A3.987,3.987,0,0,1,5.23,21.81V10.878a.994.994,0,1,1,1.988,0V21.81A1.993,1.993,0,0,0,9.205,23.8H20.137a1.993,1.993,0,0,0,1.987-1.988V10.878a.994.994,0,1,1,1.988,0V21.81A3.957,3.957,0,0,1,20.137,25.785Zm0,0"/>
      <path id="路径_18" data-name="路径 18" class="cls-3" d="M24.708,12.42a1.011,1.011,0,0,1-.546-.148c-3.379-2.188-7.9-5.219-9.441-6.263-1.54,1.044-6.012,4.025-9.342,6.21a1.005,1.005,0,1,1-1.092-1.688C8.36,7.9,14.124,4.022,14.174,3.972a.9.9,0,0,1,1.094,0c.05.05,5.912,3.975,9.985,6.609a1.019,1.019,0,0,1,.3,1.39,1.033,1.033,0,0,1-.843.449Zm0,0"/>
      <path id="路径_19" data-name="路径 19" class="cls-4" d="M18.646,19.822H10.7a.994.994,0,1,1,0-1.988h7.95a.994.994,0,1,1,0,1.988Zm0,0"/>
    </g>
  </g>
</svg>
