<svg xmlns="http://www.w3.org/2000/svg" xmlns:xlink="http://www.w3.org/1999/xlink" viewBox="0 0 22 22">
  <defs>
    <style>
      .cls-1 {
        fill: #d1d1d1;
      }

      .cls-2 {
        clip-path: url(#clip-path);
      }

      .cls-3 {
        fill: #1f91f2;
      }

      .cls-4 {
        fill: #fc7265;
      }
    </style>
    <clipPath id="clip-path">
      <rect id="矩形_33" data-name="矩形 33" class="cls-1" width="22" height="22" transform="translate(106 1523)"/>
    </clipPath>
  </defs>
  <g id="蒙版组_2" data-name="蒙版组 2" class="cls-2" transform="translate(-106 -1523)">
    <g id="CRM_icon_liebiao" transform="translate(102.1 1518.304)">
      <path id="路径_20" data-name="路径 20" class="cls-3" d="M20.715,26.693H9.086A3.93,3.93,0,0,1,5.21,22.768V10.849A3.9,3.9,0,0,1,9.086,6.923h.388V8.861H9.086a1.986,1.986,0,0,0-1.938,1.986V22.77a1.955,1.955,0,0,0,1.938,1.986H20.715a1.986,1.986,0,0,0,1.938-1.986V10.849a1.955,1.955,0,0,0-1.938-1.986H19.649V6.925h1.066a3.93,3.93,0,0,1,3.876,3.926V22.77A3.931,3.931,0,0,1,20.715,26.7Zm0,0"/>
      <path id="路径_21" data-name="路径 21" class="cls-3" d="M18.05,10.655h-6.3A2.546,2.546,0,0,1,9.086,8.281V7.07A2.546,2.546,0,0,1,11.751,4.7h6.3A2.546,2.546,0,0,1,20.715,7.07V8.281A2.546,2.546,0,0,1,18.05,10.655Zm-6.3-3.973c-.436,0-.727.242-.727.436V8.33c0,.194.291.436.727.436h6.3c.436,0,.727-.242.727-.436V7.118c0-.194-.291-.436-.727-.436Zm0,0"/>
      <path id="路径_22" data-name="路径 22" class="cls-4" d="M20.038,14.918H9.571a.969.969,0,1,1,0-1.938H20.038a.969.969,0,1,1,0,1.938Zm0,3.392H9.571a.969.969,0,1,1,0-1.938H20.038a.969.969,0,1,1,0,1.938ZM15.385,21.7H9.571a.969.969,0,1,1,0-1.938h5.814a.969.969,0,1,1,0,1.938Zm0,0"/>
    </g>
  </g>
</svg>
