<svg xmlns="http://www.w3.org/2000/svg" xmlns:xlink="http://www.w3.org/1999/xlink" viewBox="0 0 22 22">
  <defs>
    <style>
      .cls-1 {
        fill: #d1d1d1;
      }

      .cls-2 {
        clip-path: url(#clip-path);
      }

      .cls-3 {
        fill: #fc7265;
      }

      .cls-4 {
        fill: #1f91f2;
      }
    </style>
    <clipPath id="clip-path">
      <rect id="矩形_34" data-name="矩形 34" class="cls-1" width="22" height="22" transform="translate(177 1523)"/>
    </clipPath>
  </defs>
  <g id="蒙版组_3" data-name="蒙版组 3" class="cls-2" transform="translate(-177 -1523)">
    <g id="CRM_icon_jichuguanli" transform="translate(172.241 1518.241)">
      <path id="路径_23" data-name="路径 23" class="cls-3" d="M21.811,14.8H14.167v1.911h7.644ZM11.3,14.162a1.594,1.594,0,1,0,1.594,1.594A1.594,1.594,0,0,0,11.3,14.162Zm6.052,5.1H9.708v1.911h7.644Zm2.868-.635a1.594,1.594,0,1,0,1.591,1.594,1.594,1.594,0,0,0-1.591-1.594Zm0,0"/>
      <path id="路径_24" data-name="路径 24" class="cls-4" d="M6.363,10.662H25.156v1.911H6.363Z"/>
      <path id="路径_25" data-name="路径 25" class="cls-4" d="M24.839,7.17V21.883a2.15,2.15,0,0,1-2.15,2.15H8.825a2.15,2.15,0,0,1-2.15-2.15V7.485H24.839m-.63-1.919H7.307A2.549,2.549,0,0,0,4.759,8.115V23.4a2.549,2.549,0,0,0,2.55,2.549h16.9A2.549,2.549,0,0,0,26.759,23.4V8.117a2.553,2.553,0,0,0-2.553-2.549Zm0,0"/>
    </g>
  </g>
</svg>
