<svg xmlns="http://www.w3.org/2000/svg" xmlns:xlink="http://www.w3.org/1999/xlink" viewBox="0 0 22 22">
  <defs>
    <style>
      .cls-1 {
        fill: #d1d1d1;
      }

      .cls-2 {
        clip-path: url(#clip-path);
      }

      .cls-3 {
        fill: #1f91f2;
      }

      .cls-4 {
        fill: #fc7265;
      }
    </style>
    <clipPath id="clip-path">
      <rect id="矩形_35" data-name="矩形 35" class="cls-1" width="22" height="22" transform="translate(247 1523)"/>
    </clipPath>
  </defs>
  <g id="蒙版组_4" data-name="蒙版组 4" class="cls-2" transform="translate(-247 -1523)">
    <g id="CRM_icon_kehu" transform="translate(242.929 1518.929)">
      <path id="路径_26" data-name="路径 26" class="cls-3" d="M16.7,16.383a6.173,6.173,0,1,0-6.728,0,8.2,8.2,0,0,0-5.9,7.948.772.772,0,1,0,1.543,0c0-4.259,3.457-6.945,7.716-6.945s7.716,2.685,7.716,6.945a.772.772,0,1,0,1.543,0,8.2,8.2,0,0,0-5.9-7.948Zm-3.364-.54a4.63,4.63,0,1,1,4.63-4.63A4.643,4.643,0,0,1,13.331,15.842Zm10.139.633"/>
      <path id="路径_27" data-name="路径 27" class="cls-4" d="M21.616,15.319A5.184,5.184,0,0,0,18.928,5.7a.649.649,0,1,0,0,1.3,3.889,3.889,0,0,1,1.948,7.26c-1.143.7-1.454,1.688,0,2.221a5.8,5.8,0,0,1,3.9,5.467.649.649,0,1,0,1.3,0,7.149,7.149,0,0,0-4.454-6.623Z"/>
    </g>
  </g>
</svg>
