<svg xmlns="http://www.w3.org/2000/svg" xmlns:xlink="http://www.w3.org/1999/xlink" width="18" height="18" viewBox="0 0 18 18">
  <defs>
    <style>
      .cls-1 {
        fill: #666;
      }

      .cls-2 {
        clip-path: url(#clip-path);
      }
    </style>
    <clipPath id="clip-path">
      <rect id="矩形_71" data-name="矩形 71" class="cls-1" width="18" height="18" transform="translate(302 57)"/>
    </clipPath>
  </defs>
  <g id="蒙版组_17" data-name="蒙版组 17" class="cls-2" transform="translate(-302 -57)">
    <g id="tixing" transform="translate(302 57)">
      <path id="路径_99" data-name="路径 99" class="cls-1" d="M3.4,15.9l-.061,0a.692.692,0,0,1-.629-.75c0-.04.351-4.012.693-7.423C3.8,3.8,6.439,1.169,9.977,1.169c3.4,0,6.16,2.754,6.573,6.548.343,3.156.691,7.39.694,7.432a.692.692,0,0,1-1.38.113c0-.042-.35-4.258-.691-7.4-.287-2.64-2.164-5.313-5.2-5.313-2.789,0-4.877,2.133-5.2,5.308-.342,3.4-.688,7.365-.692,7.4A.692.692,0,0,1,3.4,15.9Z" transform="translate(-0.977 -1.169)"/>
      <path id="路径_100" data-name="路径 100" class="cls-1" d="M18.477,14.9H1.862a.692.692,0,1,1,0-1.385H18.477a.692.692,0,1,1,0,1.385Z" transform="translate(-1.169 0.374)"/>
      <path id="路径_101" data-name="路径 101" class="cls-1" d="M9.669,17.594A3.129,3.129,0,0,1,6.554,14.46a.692.692,0,0,1,1.385,0,1.731,1.731,0,1,0,3.461,0,.692.692,0,0,1,1.385,0,3.128,3.128,0,0,1-3.115,3.135Z" transform="translate(-0.496 0.406)"/>
      <path id="路径_102" data-name="路径 102" class="cls-1" d="M6.582,12.987H5.4l.485-5.582H7.066c.306,0,.527.312.493.7L7.2,12.29A.71.71,0,0,1,6.582,12.987Z" transform="translate(-0.64 -0.39)"/>
    </g>
  </g>
</svg>
