<svg xmlns="http://www.w3.org/2000/svg" xmlns:xlink="http://www.w3.org/1999/xlink" width="16" height="16" viewBox="0 0 16 16">
  <defs>
    <style>
      .cls-1 {
        fill: #fff;
        stroke: #707070;
      }

      .cls-2 {
        clip-path: url(#clip-path);
      }

      .cls-3 {
        fill: #999;
      }
    </style>
    <clipPath id="clip-path">
      <rect id="矩形_131" data-name="矩形 131" class="cls-1" width="16" height="16" transform="translate(96 47)"/>
    </clipPath>
  </defs>
  <g id="蒙版组_22" data-name="蒙版组 22" class="cls-2" transform="translate(-96 -47)">
    <g id="chazhao" transform="translate(94.685 45.685)">
      <path id="路径_174" data-name="路径 174" class="cls-3" d="M8.659,16A7.344,7.344,0,1,1,16,8.658,7.352,7.352,0,0,1,8.659,16Zm0-13.407a6.064,6.064,0,1,0,6.063,6.064A6.071,6.071,0,0,0,8.659,2.595Z"/>
      <path id="路径_175" data-name="路径 175" class="cls-3" d="M16.675,17.315a.638.638,0,0,1-.453-.187L13.094,14a.64.64,0,0,1,.9-.9l3.128,3.128a.64.64,0,0,1-.453,1.092Z"/>
      <path id="路径_176" data-name="路径 176" class="cls-3" d="M9.233,13.474A5.305,5.305,0,0,1,4.166,9.75l1.5-.548a3.717,3.717,0,0,0,3.564,2.672v1.6Z"/>
    </g>
  </g>
</svg>
