<svg xmlns="http://www.w3.org/2000/svg" xmlns:xlink="http://www.w3.org/1999/xlink" width="50.876" height="50" viewBox="0 0 50.876 50">
  <defs>
    <style>
      .cls-1 {
        fill: url(#linear-gradient);
      }

      .cls-2 {
        fill: url(#linear-gradient-2);
      }

      .cls-3 {
        filter: url(#zhibobofangshexiangjiguankanmianxing);
      }
    </style>
    <linearGradient id="linear-gradient" x1="0.833" y1="1" x2="0.13" y2="0.079" gradientUnits="objectBoundingBox">
      <stop offset="0" stop-color="#de572f"/>
      <stop offset="1" stop-color="#f7a76c"/>
    </linearGradient>
    <linearGradient id="linear-gradient-2" x1="0.5" x2="0.164" y2="1" gradientUnits="objectBoundingBox">
      <stop offset="0" stop-color="#fff"/>
      <stop offset="1" stop-color="#ffe7a5"/>
    </linearGradient>
    <filter id="zhibobofangshexiangjiguankanmianxing" x="0.124" y="3.171" width="50.752" height="46.658" filterUnits="userSpaceOnUse">
      <feOffset dy="3" input="SourceAlpha"/>
      <feGaussianBlur stdDeviation="3" result="blur"/>
      <feFlood flood-color="#8e580e" flood-opacity="0.243"/>
      <feComposite operator="in" in2="blur"/>
      <feComposite in="SourceGraphic"/>
    </filter>
  </defs>
  <g id="组_72" data-name="组 72" transform="translate(-162 -254)">
    <rect id="矩形_116" data-name="矩形 116" class="cls-1" width="50" height="50" rx="16" transform="translate(162 254)"/>
    <g class="cls-3" transform="matrix(1, 0, 0, 1, 162, 254)">
      <path id="zhibobofangshexiangjiguankanmianxing-2" data-name="zhibobofangshexiangjiguankanmianxing" class="cls-2" d="M28.3,17.832,33,15.745a1.023,1.023,0,0,1,1.439.935V28.1A1.023,1.023,0,0,1,33,29.039l-4.7-2.088v3.035a2.047,2.047,0,0,1-2.047,2.047H3.734a2.047,2.047,0,0,1-2.047-2.047V13.61a2.047,2.047,0,0,1,2.047-2.047H26.251A2.047,2.047,0,0,1,28.3,13.61ZM17.552,10.539a3.582,3.582,0,1,1,3.582-3.582,3.582,3.582,0,0,1-3.582,3.582Zm-7.164,0a2.559,2.559,0,1,1,2.559-2.559A2.559,2.559,0,0,1,10.387,10.539Zm1.535,15.352a1.023,1.023,0,0,0,1.531.888l7.164-4.094a1.023,1.023,0,0,0,0-1.777l-7.164-4.094a1.023,1.023,0,0,0-1.531.888v8.188Zm2.047-6.424,4.078,2.33-4.078,2.33V19.467Z" transform="translate(7.44 5.8)"/>
    </g>
  </g>
</svg>
