<svg xmlns="http://www.w3.org/2000/svg" xmlns:xlink="http://www.w3.org/1999/xlink" width="50" height="50" viewBox="0 0 50 50">
  <defs>
    <style>
      .cls-1 {
        fill: #fff;
        stroke: #707070;
      }

      .cls-2 {
        fill: url(#linear-gradient);
      }

      .cls-3 {
        clip-path: url(#clip-path);
      }

      .cls-4 {
        fill: url(#linear-gradient-2);
      }

      .cls-5 {
        filter: url(#wenkuguanli);
      }
    </style>
    <linearGradient id="linear-gradient" x1="0.829" y1="0.866" x2="0.196" y2="0.101" gradientUnits="objectBoundingBox">
      <stop offset="0" stop-color="#9544e6"/>
      <stop offset="1" stop-color="#b992fa"/>
    </linearGradient>
    <clipPath id="clip-path">
      <rect id="矩形_129" data-name="矩形 129" class="cls-1" width="30" height="30" transform="translate(312 263)"/>
    </clipPath>
    <linearGradient id="linear-gradient-2" x1="0.682" y1="0.074" x2="0.182" y2="1" gradientUnits="objectBoundingBox">
      <stop offset="0" stop-color="#f0f5ff"/>
      <stop offset="1" stop-color="#fffcd8"/>
    </linearGradient>
    <filter id="wenkuguanli" x="1" y="6.44" width="48" height="43.119" filterUnits="userSpaceOnUse">
      <feOffset dy="3" input="SourceAlpha"/>
      <feGaussianBlur stdDeviation="3" result="blur"/>
      <feFlood flood-color="#53047c" flood-opacity="0.161"/>
      <feComposite operator="in" in2="blur"/>
      <feComposite in="SourceGraphic"/>
    </filter>
  </defs>
  <g id="组_74" data-name="组 74" transform="translate(-302 -254)">
    <rect id="矩形_118" data-name="矩形 118" class="cls-2" width="50" height="50" rx="16" transform="translate(302 254)"/>
    <g id="蒙版组_21" data-name="蒙版组 21" class="cls-3" transform="translate(0 1)">
      <g class="cls-5" transform="matrix(1, 0, 0, 1, 302, 253)">
        <path id="wenkuguanli-2" data-name="wenkuguanli" class="cls-4" d="M29.972,25a1.765,1.765,0,0,1-.319,1.383,1.831,1.831,0,0,1-1.219.744l-3.7.489a1.763,1.763,0,0,1-1.371-.319,1.817,1.817,0,0,1-.759-1.219L19.984,5.241a1.886,1.886,0,0,1,.038-.73,2.11,2.11,0,0,1,.36-.642,1.723,1.723,0,0,1,.527-.489,2.151,2.151,0,0,1,.7-.27l3.612-.489a1.749,1.749,0,0,1,1.383.331,1.877,1.877,0,0,1,.744,1.231L29.972,25ZM15.912,2.525A1.841,1.841,0,0,1,17.76,4.373V25.767a1.841,1.841,0,0,1-1.849,1.849h-3.92a1.841,1.841,0,0,1-1.849-1.849V4.371a2.109,2.109,0,0,1,.41-1.31,1.418,1.418,0,0,1,1.2-.539h4.151v0Zm0,15.311a.53.53,0,0,0,.437-.243.946.946,0,0,0,.179-.577.928.928,0,0,0-.179-.589.544.544,0,0,0-.437-.231h-3.92a.54.54,0,0,0-.437.231.928.928,0,0,0-.179.589.946.946,0,0,0,.179.577.527.527,0,0,0,.437.243Zm0-3.261a.53.53,0,0,0,.437-.243.989.989,0,0,0,.179-.6.928.928,0,0,0-.179-.589.544.544,0,0,0-.437-.231h-3.92a.54.54,0,0,0-.437.231.928.928,0,0,0-.179.589.989.989,0,0,0,.179.6.527.527,0,0,0,.437.243ZM5.792,2.525a1.823,1.823,0,0,1,1.321.539,1.766,1.766,0,0,1,.551,1.31V25.767a1.771,1.771,0,0,1-.551,1.31,1.818,1.818,0,0,1-1.321.539H1.872a1.823,1.823,0,0,1-1.321-.539A1.771,1.771,0,0,1,0,25.767V4.371a1.771,1.771,0,0,1,.551-1.31,1.818,1.818,0,0,1,1.321-.539h3.92v0Zm-3.5,8.8a1.345,1.345,0,0,0-.773.231.928.928,0,0,0-.179.589.946.946,0,0,0,.179.577,1.273,1.273,0,0,0,.773.243H5.376c.188,0,.65-.082.762-.243A1.021,1.021,0,0,0,6.3,12.14a.979.979,0,0,0-.167-.589,1.289,1.289,0,0,0-.762-.231Zm3.5,8.054a.53.53,0,0,0,.448-.231,1.056,1.056,0,0,0,0-1.14.538.538,0,0,0-.448-.22h-3.5a1.382,1.382,0,0,0-.773.22,1,1,0,0,0,0,1.14,1.345,1.345,0,0,0,.773.231Zm0-3.158a.53.53,0,0,0,.448-.231,1.122,1.122,0,0,0,0-1.178.53.53,0,0,0-.448-.231h-3.5a1.345,1.345,0,0,0-.773.231,1.06,1.06,0,0,0,0,1.178,1.345,1.345,0,0,0,.773.231Z" transform="translate(10 9.92)"/>
      </g>
    </g>
  </g>
</svg>
