<svg xmlns="http://www.w3.org/2000/svg" width="15.972" height="15.972" viewBox="0 0 15.972 15.972">
  <defs>
    <style>
      .cls-1 {
        fill: #666;
      }
    </style>
  </defs>
  <g id="saoma" transform="translate(-106.193 -106.195)">
    <path id="路径_170" data-name="路径 170" class="cls-1" d="M240.816,469.63H229.705v-1.042a.694.694,0,0,1,.694-.694h9.722a.694.694,0,0,1,.694.694Z" transform="translate(-121.081 -354.581)"/>
    <path id="路径_171" data-name="路径 171" class="cls-1" d="M120.77,122.167H107.589a1.394,1.394,0,0,1-1.4-1.389v-3.805a.694.694,0,0,1,1.389,0v3.805H120.77l.006-3.805a.694.694,0,0,1,1.389,0v3.805A1.394,1.394,0,0,1,120.77,122.167Zm.7-10.084a.694.694,0,0,1-.694-.694v-3.805H107.589l-.007,3.805a.694.694,0,1,1-1.389,0v-3.805a1.394,1.394,0,0,1,1.4-1.389H120.77a1.394,1.394,0,0,1,1.4,1.389v3.805A.694.694,0,0,1,121.471,112.084Z" transform="translate(0 0)"/>
  </g>
</svg>
