<svg xmlns="http://www.w3.org/2000/svg" xmlns:xlink="http://www.w3.org/1999/xlink" width="15" height="15" viewBox="0 0 15 15">
  <defs>
    <style>
      .cls-1 {
        fill: #fff;
        stroke: #707070;
      }

      .cls-2 {
        clip-path: url(#clip-path);
      }

      .cls-3 {
        fill: #999;
      }
    </style>
    <clipPath id="clip-path">
      <rect id="矩形_138" data-name="矩形 138" class="cls-1" width="15" height="15" transform="translate(24 713)"/>
    </clipPath>
  </defs>
  <g id="蒙版组_24" data-name="蒙版组 24" class="cls-2" transform="translate(-24 -713)">
    <path id="brush" class="cls-3" d="M16.679,9.719,13.088,6.127l1.357-1.357,3.59,3.593ZM9.248,17.156l-3.6-3.595h.005l6.51-6.515L15.76,10.64,9.247,17.156Zm-3.608.02V15.388l1.784,1.783-1.783,0ZM18.96,7.444,15.366,3.85a1.24,1.24,0,0,0-.921-.379,1.3,1.3,0,0,0-.918.383l-8.79,8.788a1.3,1.3,0,0,0-.364,1.106.6.6,0,0,0-.034.168v3.26a1.3,1.3,0,0,0,1.3,1.295h3.26a.626.626,0,0,0,.167-.033,1.317,1.317,0,0,0,.182.017,1.3,1.3,0,0,0,.924-.383l8.788-8.788a1.3,1.3,0,0,0,0-1.839Z" transform="translate(19.663 709.53)"/>
  </g>
</svg>
