<svg xmlns="http://www.w3.org/2000/svg" xmlns:xlink="http://www.w3.org/1999/xlink" width="15" height="15" viewBox="0 0 15 15">
  <defs>
    <style>
      .cls-1 {
        fill: #fff;
        stroke: #707070;
      }

      .cls-2 {
        clip-path: url(#clip-path);
      }

      .cls-3 {
        fill: #999;
      }
    </style>
    <clipPath id="clip-path">
      <rect id="矩形_139" data-name="矩形 139" class="cls-1" width="15" height="15" transform="translate(24 769)"/>
    </clipPath>
  </defs>
  <g id="蒙版组_26" data-name="蒙版组 26" class="cls-2" transform="translate(-24 -769)">
    <path id="setup" class="cls-3" d="M16.953,11.9A2.5,2.5,0,0,0,15,15.287a6.23,6.23,0,0,1-2.211,1.279,2.5,2.5,0,0,0-3.908,0,6.235,6.235,0,0,1-2.211-1.278A2.5,2.5,0,0,0,4.713,11.9a6.313,6.313,0,0,1,0-2.554A2.5,2.5,0,0,0,6.668,5.967,6.23,6.23,0,0,1,8.879,4.688a2.5,2.5,0,0,0,3.908,0A6.225,6.225,0,0,1,15,5.967,2.5,2.5,0,0,0,16.953,9.35a6.28,6.28,0,0,1,0,2.554m1.1-3.326a.621.621,0,0,0-.641-.453,1.251,1.251,0,0,1-1.121-1.941.625.625,0,0,0-.072-.78,7.488,7.488,0,0,0-3.549-2.051.624.624,0,0,0-.712.329,1.25,1.25,0,0,1-2.241,0A.625.625,0,0,0,9,3.353,7.486,7.486,0,0,0,5.451,5.4a.625.625,0,0,0-.073.781A1.251,1.251,0,0,1,4.258,8.125a.616.616,0,0,0-.641.453,7.54,7.54,0,0,0,0,4.1.623.623,0,0,0,.641.453A1.251,1.251,0,0,1,5.379,15.07a.625.625,0,0,0,.073.781A7.478,7.478,0,0,0,9,17.9a.624.624,0,0,0,.713-.328,1.251,1.251,0,0,1,2.241,0,.625.625,0,0,0,.712.329,7.481,7.481,0,0,0,3.549-2.051.625.625,0,0,0,.072-.781,1.251,1.251,0,0,1,1.121-1.94.627.627,0,0,0,.641-.453,7.543,7.543,0,0,0,0-4.1M10.833,12.5a1.875,1.875,0,1,1,1.875-1.875A1.878,1.878,0,0,1,10.833,12.5m0-5a3.125,3.125,0,1,0,3.125,3.125A3.128,3.128,0,0,0,10.833,7.5" transform="translate(20.667 765.873)"/>
  </g>
</svg>
