<svg xmlns="http://www.w3.org/2000/svg" xmlns:xlink="http://www.w3.org/1999/xlink" width="15" height="15" viewBox="0 0 15 15">
  <defs>
    <style>
      .cls-1 {
        fill: #fff;
        stroke: #707070;
      }

      .cls-2 {
        clip-path: url(#clip-path);
      }

      .cls-3 {
        fill: #999;
      }
    </style>
    <clipPath id="clip-path">
      <rect id="矩形_136" data-name="矩形 136" class="cls-1" width="15" height="15" transform="translate(24 601)"/>
    </clipPath>
  </defs>
  <g id="蒙版组_28" data-name="蒙版组 28" class="cls-2" transform="translate(-24 -601)">
    <path id="dynamic" class="cls-3" d="M5.909,18.187V5.909L18.182,5.9l.005,12.28-12.278,0ZM18.187,4.545H5.9A1.36,1.36,0,0,0,4.545,5.9V18.187A1.36,1.36,0,0,0,5.9,19.545H18.187a1.36,1.36,0,0,0,1.358-1.358V5.9a1.36,1.36,0,0,0-1.358-1.357Zm-1.743,6.026-2.489,2.488-2.177-2.178a.682.682,0,0,0-.962,0L7.475,14.186a.683.683,0,0,0,.959.97l2.86-2.83,2.18,2.18a.7.7,0,0,0,.964,0l2.97-2.971a.682.682,0,0,0-.964-.964" transform="translate(19.455 596.455)"/>
  </g>
</svg>
