<svg xmlns="http://www.w3.org/2000/svg" xmlns:xlink="http://www.w3.org/1999/xlink" width="15" height="15" viewBox="0 0 15 15">
  <defs>
    <style>
      .cls-1 {
        fill: #fff;
        stroke: #707070;
      }

      .cls-2 {
        clip-path: url(#clip-path);
      }

      .cls-3 {
        fill: #999;
      }
    </style>
    <clipPath id="clip-path">
      <rect id="矩形_154" data-name="矩形 154" class="cls-1" width="15" height="15" transform="translate(24 823)"/>
    </clipPath>
  </defs>
  <g id="蒙版组_38" data-name="蒙版组 38" class="cls-2" transform="translate(-24 -823)">
    <g id="systemprompt" transform="translate(20.556 819.111)">
      <path id="路径_242" data-name="路径 242" class="cls-3" d="M16.078,6.671a.652.652,0,0,0-.907.2.676.676,0,0,0,.192.924,4.9,4.9,0,0,1,1.761,4.126,4.973,4.973,0,0,1-1.686,4.13.675.675,0,0,0-.183.93.656.656,0,0,0,.915.185,6.26,6.26,0,0,0,2.274-5.246,6.193,6.193,0,0,0-2.366-5.251"/>
      <path id="路径_243" data-name="路径 243" class="cls-3" d="M14.024,8.638a.652.652,0,0,0-.87.314.679.679,0,0,0,.3.893,2.205,2.205,0,0,1,1.031,2.028A2.333,2.333,0,0,1,13.531,14a.674.674,0,0,0-.3.9.66.66,0,0,0,.886.3A3.608,3.608,0,0,0,15.8,11.875a3.512,3.512,0,0,0-1.781-3.237m-3,8.082L9.644,15.467,7.389,13.416a.69.69,0,0,0-.464-.179h-2.1L4.815,8.814H7.583a.691.691,0,0,0,.59-.167L9.643,7.31l1.378-1.252V16.719ZM11.84,4.208a.99.99,0,0,0-1.1.245l-1.094.995L7.456,7.436H4.815A1.376,1.376,0,0,0,3.444,8.813v4.425a1.376,1.376,0,0,0,1.371,1.377H6.659l2.986,2.714,1.1,1a1.1,1.1,0,0,0,.744.321.9.9,0,0,0,.359-.074.986.986,0,0,0,.558-.977V5.182A1.012,1.012,0,0,0,11.84,4.208Z"/>
    </g>
  </g>
</svg>
