<svg xmlns="http://www.w3.org/2000/svg" xmlns:xlink="http://www.w3.org/1999/xlink" width="15" height="15" viewBox="0 0 15 15">
  <defs>
    <style>
      .cls-1 {
        fill: #fff;
        stroke: #707070;
      }

      .cls-2 {
        clip-path: url(#clip-path);
      }

      .cls-3 {
        fill: #999;
      }
    </style>
    <clipPath id="clip-path">
      <rect id="矩形_153" data-name="矩形 153" class="cls-1" width="15" height="15" transform="translate(24 600)"/>
    </clipPath>
  </defs>
  <g id="蒙版组_39" data-name="蒙版组 39" class="cls-2" transform="translate(-24 -600)">
    <g id="label" transform="translate(21.39 596.742)">
      <path id="路径_244" data-name="路径 244" class="cls-3" d="M16.252,10.149l-6.8,6.8h0L3.913,11.413l6.8-6.8c.166-.017.576-.046,1.548-.046,1.677,0,3.909.082,3.952.1.085,2.27.119,4.831.039,5.477m1.266-5.5a1.3,1.3,0,0,0-1.278-1.3h0c-.022,0-2.277-.084-3.978-.084-1.961,0-2.137.095-2.349.307L2.991,10.491a1.308,1.308,0,0,0,0,1.849L8.525,17.87a1.31,1.31,0,0,0,1.848,0l6.921-6.921c.228-.228.444-.444.224-6.3"/>
      <path id="路径_245" data-name="路径 245" class="cls-3" d="M12.426,8.978A.979.979,0,1,1,13.4,8a.98.98,0,0,1-.979.979m0-3.263A2.284,2.284,0,1,0,14.71,8a2.286,2.286,0,0,0-2.284-2.284"/>
    </g>
  </g>
</svg>
