<svg id="bianji" xmlns="http://www.w3.org/2000/svg" width="40" height="40" viewBox="0 0 40 40">
  <defs>
    <style>
      .cls-1 {
        fill: #ffbb8d;
      }

      .cls-2 {
        fill: #ffb583;
      }

      .cls-3 {
        fill: #ffaf78;
      }

      .cls-4 {
        fill: #ffa96e;
      }

      .cls-5 {
        fill: #fff;
      }

      .cls-6 {
        fill: #ffeadc;
      }

      .cls-7 {
        fill: #ffc298;
      }

      .cls-8 {
        fill: #ffd9bf;
      }
    </style>
  </defs>
  <path id="路径_137" data-name="路径 137" class="cls-1" d="M0,0,8,0H32q8,0,8,8V32q0,8-8,8H8q-8,0-8-8V8Q0,0,8,0Z"/>
  <path id="路径_138" data-name="路径 138" class="cls-2" d="M32,0H20.87A29.55,29.55,0,0,0,0,18.89V32a8,8,0,0,0,8,8H32a8,8,0,0,0,8-8V8A8,8,0,0,0,32,0Z" transform="translate(0 0)"/>
  <path id="路径_139" data-name="路径 139" class="cls-3" d="M243.19,0h-.15a29.5,29.5,0,0,0-21.07,40h21.22a8,8,0,0,0,8-8V8A8,8,0,0,0,243.19,0Z" transform="translate(-211.19 0)"/>
  <path id="路径_140" data-name="路径 140" class="cls-4" d="M497.151,62.62a29.39,29.39,0,0,0,2.47,11.83h10.11a8,8,0,0,0,8-8v-24a8,8,0,0,0-3.479-6.6A29.5,29.5,0,0,0,497.151,62.62Z" transform="translate(-477.731 -34.45)"/>
  <path id="路径_141" data-name="路径 141" class="cls-5" d="M251.7,148.154l-7.37,1.89a.48.48,0,0,1-.6-.42l-.74-7.58a1.93,1.93,0,0,1,.34-1.29l12.85-18.37a1.93,1.93,0,0,1,2.69-.47l6.32,4.42a1.93,1.93,0,0,1,.47,2.69l-12.86,18.37a1.93,1.93,0,0,1-1.1.76Z" transform="translate(-233.485 -116.814)"/>
  <path id="路径_142" data-name="路径 142" class="cls-6" d="M251.7,148.154l-7.37,1.89a.48.48,0,0,1-.6-.42l-.74-7.58a1.93,1.93,0,0,1,.34-1.29l12.85-18.37a1.93,1.93,0,0,1,2.69-.47l6.32,4.42a1.93,1.93,0,0,1,.47,2.69l-12.86,18.37a1.93,1.93,0,0,1-1.1.76Z" transform="translate(-233.485 -116.814)"/>
  <path id="路径_143" data-name="路径 143" class="cls-7" d="M256,768l.28,2.84a.48.48,0,0,0,.6.42l2.76-.71Z" transform="translate(-246 -738)"/>
  <path id="路径_144" data-name="路径 144" class="cls-5" d="M288.524,126.334l-6.32-4.42a1.93,1.93,0,0,0-2.69.47l-12.25,17.5a24.6,24.6,0,0,0,10.84-1,25.91,25.91,0,0,0,5.95-2.77l4.94-7.06a1.93,1.93,0,0,0-.47-2.72Z" transform="translate(-256.824 -116.814)"/>
  <path id="路径_145" data-name="路径 145" class="cls-8" d="M496.311,178.873m1.163.814,8.732,6.114a1.255,1.255,0,0,1,.349,1.978l-.029.041a1.255,1.255,0,0,1-1.978.349l-8.732-6.114a1.255,1.255,0,0,1-.349-1.978l.029-.041a1.255,1.255,0,0,1,1.978-.349Z" transform="translate(-475.791 -171.885)"/>
</svg>
