<svg xmlns="http://www.w3.org/2000/svg" xmlns:xlink="http://www.w3.org/1999/xlink" width="40" height="40" viewBox="0 0 40 40">
  <defs>
    <style>
      .cls-1, .cls-8 {
        fill: #fff;
      }

      .cls-1 {
        stroke: #707070;
      }

      .cls-2 {
        clip-path: url(#clip-path);
      }

      .cls-3 {
        fill: #ff8aae;
      }

      .cls-4 {
        fill: #ff83a4;
      }

      .cls-5 {
        fill: #ff7d96;
      }

      .cls-6 {
        fill: #ff768a;
      }

      .cls-7 {
        fill: #ffe9f1;
      }

      .cls-9 {
        fill: #ffa1c3;
      }
    </style>
    <clipPath id="clip-path">
      <rect id="矩形_152" data-name="矩形 152" class="cls-1" width="40" height="40" transform="translate(287 298)"/>
    </clipPath>
  </defs>
  <g id="蒙版组_37" data-name="蒙版组 37" class="cls-2" transform="translate(-287 -298)">
    <g id="dingwei" transform="translate(287 298)">
      <path id="路径_235" data-name="路径 235" class="cls-3" d="M0,0,8,0H32q8,0,8,8V32q0,8-8,8H8q-8,0-8-8V8Q0,0,8,0Z"/>
      <path id="路径_236" data-name="路径 236" class="cls-4" d="M32,0H20.87A29.55,29.55,0,0,0,0,18.89V32a8,8,0,0,0,8,8H32a8,8,0,0,0,8-8V8A8,8,0,0,0,32,0Z"/>
      <path id="路径_237" data-name="路径 237" class="cls-5" d="M32,0h-.15A29.5,29.5,0,0,0,10.78,40H32a8,8,0,0,0,8-8V8A8,8,0,0,0,32,0Z"/>
      <path id="路径_238" data-name="路径 238" class="cls-6" d="M19.42,28.17A29.39,29.39,0,0,0,21.89,40H32a8,8,0,0,0,8-8V8a8,8,0,0,0-3.479-6.6,29.5,29.5,0,0,0-17.1,26.77Z"/>
      <path id="路径_239" data-name="路径 239" class="cls-7" d="M30.5,17c0,6.2-7.47,13.9-9.81,16.15a1,1,0,0,1-1.38,0C17,30.94,9.5,23.25,9.5,17a10.5,10.5,0,1,1,21,0Z"/>
      <path id="路径_240" data-name="路径 240" class="cls-8" d="M21.79,6.71A10.45,10.45,0,0,0,9.5,17c0,5.35,5.5,11.74,8.5,14.89C20.62,29.32,27.5,22,27.5,16a10.49,10.49,0,0,0-5.71-9.29Z"/>
      <path id="路径_241" data-name="路径 241" class="cls-9" d="M20,17.05m-2.5,0a2.5,2.5,0,1,0,2.5-2.5A2.5,2.5,0,0,0,17.5,17.05Z"/>
    </g>
  </g>
</svg>
