<svg id="liebiao" xmlns="http://www.w3.org/2000/svg" width="40" height="40" viewBox="0 0 40 40">
  <defs>
    <style>
      .cls-1 {
        fill: #a28fff;
      }

      .cls-2 {
        fill: #a288ff;
      }

      .cls-3 {
        fill: #a280ff;
      }

      .cls-4 {
        fill: #9f73ff;
      }

      .cls-5 {
        fill: #f0f0ff;
      }

      .cls-6 {
        fill: #fffdf3;
      }

      .cls-7 {
        fill: #afa4ff;
      }
    </style>
  </defs>
  <path id="路径_116" data-name="路径 116" class="cls-1" d="M0,0,8,0H32q8,0,8,8V32q0,8-8,8H8q-8,0-8-8V8Q0,0,8,0Z"/>
  <path id="路径_117" data-name="路径 117" class="cls-2" d="M32,0H20.87A29.55,29.55,0,0,0,0,18.89V32a8,8,0,0,0,8,8H32a8,8,0,0,0,8-8V8A8,8,0,0,0,32,0Z" transform="translate(0 0)"/>
  <path id="路径_118" data-name="路径 118" class="cls-3" d="M243.19,0h-.15a29.5,29.5,0,0,0-21.07,40h21.22a8,8,0,0,0,8-8V8A8,8,0,0,0,243.19,0Z" transform="translate(-211.19 0)"/>
  <path id="路径_119" data-name="路径 119" class="cls-4" d="M497.151,62.62a29.39,29.39,0,0,0,2.47,11.83h10.11a8,8,0,0,0,8-8v-24a8,8,0,0,0-3.479-6.6A29.5,29.5,0,0,0,497.151,62.62Z" transform="translate(-477.732 -34.45)"/>
  <path id="路径_120" data-name="路径 120" class="cls-5" d="M243.2,204.8m2,0h17a1.768,1.768,0,0,1,2,2v20a1.768,1.768,0,0,1-2,2h-17a1.768,1.768,0,0,1-2-2v-20A1.768,1.768,0,0,1,245.2,204.8Z" transform="translate(-233.7 -196.8)"/>
  <path id="路径_121" data-name="路径 121" class="cls-6" d="M264.2,206.8a2,2,0,0,0-2-2h-17a2,2,0,0,0-2,2v20a2,2,0,0,0,2,2h6.36a23.1,23.1,0,0,0,9.14-8,23.919,23.919,0,0,0,3.48-7.81Z" transform="translate(-233.7 -196.8)"/>
  <path id="路径_122" data-name="路径 122" class="cls-7" d="M358.4,486.4m1,0h10a.884.884,0,0,1,1,1h0a.884.884,0,0,1-1,1h-10a.884.884,0,0,1-1-1h0A.884.884,0,0,1,359.4,486.4Z" transform="translate(-344.4 -467.4)"/>
  <path id="路径_123" data-name="路径 123" class="cls-7" d="M358.4,358.4m1,0h10a.884.884,0,0,1,1,1h0a.884.884,0,0,1-1,1h-10a.884.884,0,0,1-1-1h0A.884.884,0,0,1,359.4,358.4Z" transform="translate(-344.4 -344.4)"/>
</svg>
