<svg xmlns="http://www.w3.org/2000/svg" width="14" height="14.843" viewBox="0 0 14 14.843">
  <defs>
    <style>
      .cls-1 {
        fill: #e91e63;
      }
    </style>
  </defs>
  <g id="nv" transform="translate(-6.84 -6.656)">
    <path id="路径_160" data-name="路径 160" class="cls-1" d="M289.792,616.538a.6.6,0,1,0,.6-.6A.6.6,0,0,0,289.792,616.538Zm5,0a.6.6,0,1,0,.6-.6A.6.6,0,0,0,294.795,616.538Z" transform="translate(-279.221 -600.328)"/>
    <path id="路径_161" data-name="路径 161" class="cls-1" d="M49.05,14.352c0-.083,0-.166-.008-.256,0-.045.008-.09.008-.135a1.266,1.266,0,0,0-.053-.4,5.626,5.626,0,0,0-4.581-5.033,1.33,1.33,0,0,0,.06-.391,1.568,1.568,0,0,0-1.64-1.482,1.587,1.587,0,0,0-1.655,1.482,1.33,1.33,0,0,0,.06.391A5.789,5.789,0,0,0,36.6,14.367a1.886,1.886,0,0,0,.429,3.265c.677,4.3.963,3.137.963,2.625,0-.233-.1-.9-.128-1.708a5.644,5.644,0,0,0,8.945,1.3,6.163,6.163,0,0,0,.67-.8c-.023.715-.045,1.332-.045,1.557,0,.512.5-.135,1.016-2.317.053-.211.1-.429.143-.639a1.885,1.885,0,0,0,1.249-1.775A1.909,1.909,0,0,0,49.05,14.352ZM36.1,15.879a1.626,1.626,0,0,1,.519-1.189c.008.038.008.068.015.1.128.993.241,1.828.354,2.528A1.592,1.592,0,0,1,36.1,15.879Zm11.39,2.648a5.378,5.378,0,0,1-9.637-.594,4.255,4.255,0,0,1,1.091-3.145A5.635,5.635,0,0,0,40.5,11.741a2.58,2.58,0,0,0,1.67,2.152,12.972,12.972,0,0,0,3.3.436c.376.008,1.971-.06,2.129,1.542C47.6,15.879,47.546,17.248,47.493,18.527Zm1.159-1.181a16.808,16.808,0,0,0,.339-2.452.735.735,0,0,0,.045-.218,1.628,1.628,0,0,1-.384,2.671Z" transform="translate(-29 0)"/>
  </g>
</svg>
