<svg id="xingxing" xmlns="http://www.w3.org/2000/svg" width="40" height="40" viewBox="0 0 40 40">
  <defs>
    <style>
      .cls-1 {
        fill: #ffec9c;
      }

      .cls-2 {
        fill: #ffe98a;
      }

      .cls-3 {
        fill: #ffe471;
      }

      .cls-4 {
        fill: #ffe161;
      }

      .cls-5 {
        fill: #fff5cc;
      }

      .cls-6 {
        fill: #fff;
      }
    </style>
  </defs>
  <path id="路径_154" data-name="路径 154" class="cls-1" d="M0,0,8,0H32q8,0,8,8V32q0,8-8,8H8q-8,0-8-8V8Q0,0,8,0Z"/>
  <path id="路径_155" data-name="路径 155" class="cls-2" d="M32,0H20.87A29.55,29.55,0,0,0,0,18.89V32a8,8,0,0,0,8,8H32a8,8,0,0,0,8-8V8A8,8,0,0,0,32,0Z" transform="translate(0 0)"/>
  <path id="路径_156" data-name="路径 156" class="cls-3" d="M243.19,0h-.15a29.5,29.5,0,0,0-21.07,40h21.22a8,8,0,0,0,8-8V8A8,8,0,0,0,243.19,0Z" transform="translate(-211.19 0)"/>
  <path id="路径_157" data-name="路径 157" class="cls-4" d="M497.151,62.62a29.39,29.39,0,0,0,2.47,11.83h10.11a8,8,0,0,0,8-8v-24a8,8,0,0,0-3.479-6.6A29.5,29.5,0,0,0,497.151,62.62Z" transform="translate(-477.731 -34.45)"/>
  <path id="路径_158" data-name="路径 158" class="cls-5" d="M181.164,131.985l3.84,7.78,8.61,1.25a.61.61,0,0,1,.34,1l-6.24,6.1,1.47,8.56a.61.61,0,0,1-.88.64l-7.68-4-7.68,4a.61.61,0,0,1-.88-.64l1.45-8.56-6.22-6.06a.61.61,0,0,1,.34-1l8.59-1.25,3.84-7.78a.61.61,0,0,1,1.1-.04Z" transform="translate(-160.614 -126.515)"/>
  <path id="路径_159" data-name="路径 159" class="cls-6" d="M186.122,142.3a17.352,17.352,0,0,0,1-2.4l-2.56-.37-3.89-7.76a.61.61,0,0,0-1.09,0l-3.84,7.78-8.62,1.25a.61.61,0,0,0-.34,1l6.24,6.1-.59,3.4a15.93,15.93,0,0,0,13.69-9Z" transform="translate(-160.122 -126.296)"/>
</svg>
